<svg version="1.0" xmlns="http://www.w3.org/2000/svg" viewBox="0 0 78.000000 78.000000" preserveAspectRatio="xMidYMid meet">
    <g transform="translate(0.000000,78.000000) scale(0.100000,-0.100000)" fill="currentColor" stroke="none">
        <path d="M172 578 c3 -23 5 -23 186 -26 109 -1 182 1 182 7 0 40 -6 41 -192 41 l-179 0 3 -22z"/>
        <path d="M164 521 c-9 -9 -3 -304 6 -322 10 -18 23 -19 203 -19 137 0 196 3 205 12 7 7 12 29 12 50 l0 38 -46 0 c-70 0 -84 12 -84 70 0 58 14 70 84 70 l46 0 0 39 c0 21 -6 43 -13 49 -12 11 -403 22 -413 13z"/>
        <path d="M484 376 c-3 -8 -4 -25 -2 -38 3 -21 8 -23 68 -23 l65 0 0 35 0 35 -63 3 c-48 2 -64 0 -68 -12z"/>
    </g>
</svg>
